<?xml version="1.0" encoding="UTF-8" standalone="no"?>
<svg
   xmlns:dc="http://purl.org/dc/elements/1.1/"
   xmlns:cc="http://creativecommons.org/ns#"
   xmlns:rdf="http://www.w3.org/1999/02/22-rdf-syntax-ns#"
   xmlns:svg="http://www.w3.org/2000/svg"
   xmlns="http://www.w3.org/2000/svg"
   xmlns:sodipodi="http://sodipodi.sourceforge.net/DTD/sodipodi-0.dtd"
   xmlns:inkscape="http://www.inkscape.org/namespaces/inkscape"
   width="1000"
   height="1000"
   viewBox="0 0 264.58333 264.58334"
   version="1.1"
   id="svg8"
   inkscape:version="1.0 (4035a4fb49, 2020-05-01)"
   sodipodi:docname="logo3solo.svg"
   inkscape:export-filename="C:\Users\barba\Documents\github_sync\ecoute\assets\logo192.png"
   inkscape:export-xdpi="18.431999"
   inkscape:export-ydpi="18.431999">
  <defs
     id="defs2" />
  <sodipodi:namedview
     inkscape:snap-text-baseline="false"
     id="base"
     pagecolor="#ffffff"
     bordercolor="#666666"
     borderopacity="1.0"
     inkscape:pageopacity="0.0"
     inkscape:pageshadow="2"
     inkscape:zoom="0.49497475"
     inkscape:cx="239.45639"
     inkscape:cy="586.92178"
     inkscape:document-units="mm"
     inkscape:current-layer="layer1"
     inkscape:document-rotation="0"
     showgrid="false"
     units="px"
     inkscape:window-width="2160"
     inkscape:window-height="1346"
     inkscape:window-x="-11"
     inkscape:window-y="-11"
     inkscape:window-maximized="1" />
  <metadata
     id="metadata5">
    <rdf:RDF>
      <cc:Work
         rdf:about="">
        <dc:format>image/svg+xml</dc:format>
        <dc:type
           rdf:resource="http://purl.org/dc/dcmitype/StillImage" />
        <dc:title />
      </cc:Work>
    </rdf:RDF>
  </metadata>
  <g
     inkscape:label="Calque 1"
     inkscape:groupmode="layer"
     id="layer1">
    <rect
       y="-7.3275442"
       x="-13.20747"
       height="280.85556"
       width="287.80453"
       id="rect865"
       style="fill:#fdfdfd;fill-opacity:1;stroke:#000000;stroke-width:0.576579" />
    <path
       id="path10"
       d="m -297.65354,92.737585 c 7.78684,10.555485 9.17119,24.744865 11.68027,41.529795 2.50909,16.69851 6.05643,35.99258 -1.7304,47.49977 -7.78685,11.50723 -27.0809,15.3141 -45.50977,14.53544 -18.51536,-0.69218 -36.25203,-6.0564 -47.49969,-17.56363 -11.16113,-11.50724 -15.83323,-29.24392 -15.31412,-46.46154 0.60566,-17.13103 6.316,-33.829508 17.56366,-44.298419 11.16113,-10.555517 27.85955,-14.881557 43.2602,-13.67023 15.48716,1.211276 29.67651,7.959869 37.54985,18.428814 z"
       fill="#5770be"
       style="stroke-width:0.865203" />
    <path
       style="fill:#ff8d7e;fill-opacity:1;stroke-width:0.865205"
       fill="#5770be"
       d="m -236.9516,180.95481 c -7.7869,-10.5555 -9.17125,-24.74488 -11.68036,-41.52984 -2.50911,-16.69847 -6.05646,-35.99252 1.73044,-47.499754 7.78688,-11.507244 27.08105,-15.314101 45.51,-14.535452 18.51547,0.692177 36.25227,6.056416 47.49997,17.563643 11.16122,11.507243 15.83331,29.243923 15.31418,46.461543 -0.60564,17.13107 -6.31601,33.82952 -17.56372,44.29843 -11.16119,10.55552 -27.85973,14.88156 -43.26046,13.67025 -15.48724,-1.21128 -29.67667,-7.95987 -37.55005,-18.42882 z"
       id="path10-5" />
    <text
       id="text18"
       y="306.38644"
       x="18.128702"
       style="font-style:normal;font-weight:normal;font-size:40.8728px;line-height:1.25;font-family:sans-serif;fill:#000000;fill-opacity:1;stroke:none;stroke-width:0.425758"
       xml:space="preserve"><tspan
         style="font-style:normal;font-variant:normal;font-weight:normal;font-stretch:normal;font-size:40.8728px;font-family:'Lexend Deca';-inkscape-font-specification:'Lexend Deca';stroke-width:0.425758"
         y="306.38644"
         x="18.128702"
         id="tspan16"
         sodipodi:role="line">ecoute<tspan
   id="tspan864"
   style="fill:#ff8d7e;fill-opacity:1">.</tspan>app</tspan></text>
    <path
       style="stroke-width:0.956125"
       fill="#5770be"
       d="m 181.52034,85.683659 c 8.60515,11.664753 10.13497,27.345271 12.90773,45.894111 2.77277,18.45333 6.6929,39.77499 -1.91224,52.49146 -8.60516,12.71651 -29.9268,16.92344 -50.29234,16.06295 -20.46111,-0.76492 -40.0617,-6.69286 -52.491365,-19.40937 C 77.398088,168.0063 72.235003,148.4057 72.808665,129.3787 73.477973,110.44738 79.788406,91.994081 92.218068,80.425002 104.55211,68.760215 123.00534,63.979556 140.02442,65.31818 c 17.11468,1.338568 32.79518,8.796362 41.49592,20.365479 z"
       id="path10-1" />
  </g>
</svg>
