<?xml version="1.0" encoding="UTF-8" standalone="no"?>
<svg
   xmlns:dc="http://purl.org/dc/elements/1.1/"
   xmlns:cc="http://creativecommons.org/ns#"
   xmlns:rdf="http://www.w3.org/1999/02/22-rdf-syntax-ns#"
   xmlns:svg="http://www.w3.org/2000/svg"
   xmlns="http://www.w3.org/2000/svg"
   xmlns:sodipodi="http://sodipodi.sourceforge.net/DTD/sodipodi-0.dtd"
   xmlns:inkscape="http://www.inkscape.org/namespaces/inkscape"
   width="1000"
   height="1000"
   viewBox="0 0 264.58333 264.58334"
   version="1.1"
   id="svg8"
   inkscape:version="1.0 (4035a4fb49, 2020-05-01)"
   sodipodi:docname="logo.svg">
  <defs
     id="defs2" />
  <sodipodi:namedview
     inkscape:snap-text-baseline="false"
     id="base"
     pagecolor="#ffffff"
     bordercolor="#666666"
     borderopacity="1.0"
     inkscape:pageopacity="0.0"
     inkscape:pageshadow="2"
     inkscape:zoom="0.7"
     inkscape:cx="441.40458"
     inkscape:cy="493.44232"
     inkscape:document-units="mm"
     inkscape:current-layer="layer1"
     inkscape:document-rotation="0"
     showgrid="false"
     units="px"
     inkscape:window-width="2160"
     inkscape:window-height="1346"
     inkscape:window-x="-11"
     inkscape:window-y="-11"
     inkscape:window-maximized="1" />
  <metadata
     id="metadata5">
    <rdf:RDF>
      <cc:Work
         rdf:about="">
        <dc:format>image/svg+xml</dc:format>
        <dc:type
           rdf:resource="http://purl.org/dc/dcmitype/StillImage" />
        <dc:title />
      </cc:Work>
    </rdf:RDF>
  </metadata>
  <g
     inkscape:label="Calque 1"
     inkscape:groupmode="layer"
     id="layer1">
    <path
       id="path10"
       d="m 53.623882,113.88241 c 3.700439,5.01615 4.358303,11.75919 5.550669,19.73567 1.192359,7.93539 2.878113,17.10426 -0.822327,22.57268 -3.700439,5.46843 -12.869299,7.27752 -21.627004,6.90749 -8.798819,-0.32894 -17.227595,-2.87811 -22.572674,-8.34654 -5.3039611,-5.46844 -7.5242229,-13.89721 -7.2775272,-22.07929 0.287814,-8.14096 3.0014675,-16.07636 8.3465442,-21.05137 5.303961,-5.01616 13.239345,-7.07197 20.557991,-6.49633 7.35976,0.57562 14.102781,3.78267 17.844328,8.75769 z"
       fill="#5770be"
       style="stroke-width:0.411159" />
    <path
       style="fill:#ff8d7e;fill-opacity:1;stroke-width:0.41116"
       fill="#5770be"
       d="m 143.20524,287.75146 c 3.70046,5.01615 4.35833,11.75919 5.5507,19.73567 1.19237,7.93539 2.87814,17.10426 -0.82233,22.57269 -3.70046,5.46843 -12.86938,7.27751 -21.62713,6.90749 -8.79887,-0.32894 -17.2277,-2.87812 -22.5728,-8.34654 -5.304,-5.46844 -7.52427,-13.89721 -7.27757,-22.0793 0.28781,-8.14096 3.00149,-16.07636 8.34659,-21.05137 5.30399,-5.01616 13.23942,-7.07197 20.55811,-6.49633 7.3598,0.57562 14.10286,3.78267 17.84443,8.75769 z"
       id="path10-5" />
    <text
       id="text18"
       y="145.74657"
       x="35.213223"
       style="font-style:normal;font-weight:normal;font-size:40.8728px;line-height:1.25;font-family:sans-serif;fill:#000000;fill-opacity:1;stroke:none;stroke-width:0.425758"
       xml:space="preserve"><tspan
         style="font-style:normal;font-variant:normal;font-weight:normal;font-stretch:normal;font-size:40.8728px;font-family:'Lexend Deca';-inkscape-font-specification:'Lexend Deca';stroke-width:0.425758"
         y="145.74657"
         x="35.213223"
         id="tspan16"
         sodipodi:role="line"><tspan
   id="tspan843"
   style="fill:#ffffff">e</tspan>coute<tspan
   id="tspan864"
   style="fill:#ff8d7e;fill-opacity:1">.</tspan>app</tspan></text>
  </g>
</svg>
