<?xml version="1.0" encoding="UTF-8" standalone="no"?>
<svg
   xmlns:dc="http://purl.org/dc/elements/1.1/"
   xmlns:cc="http://creativecommons.org/ns#"
   xmlns:rdf="http://www.w3.org/1999/02/22-rdf-syntax-ns#"
   xmlns:svg="http://www.w3.org/2000/svg"
   xmlns="http://www.w3.org/2000/svg"
   xmlns:sodipodi="http://sodipodi.sourceforge.net/DTD/sodipodi-0.dtd"
   xmlns:inkscape="http://www.inkscape.org/namespaces/inkscape"
   width="48"
   height="48"
   viewBox="0 0 12.7 12.7"
   version="1.1"
   id="svg886"
   inkscape:version="1.0 (4035a4fb49, 2020-05-01)"
   sodipodi:docname="miniqr.svg">
  <defs
     id="defs880" />
  <sodipodi:namedview
     id="base"
     pagecolor="#ffffff"
     bordercolor="#666666"
     borderopacity="1.0"
     inkscape:pageopacity="0.0"
     inkscape:pageshadow="2"
     inkscape:zoom="7.9195959"
     inkscape:cx="22.632054"
     inkscape:cy="25.712637"
     inkscape:document-units="mm"
     inkscape:current-layer="layer1"
     inkscape:document-rotation="0"
     showgrid="false"
     units="px"
     inkscape:window-width="2160"
     inkscape:window-height="1346"
     inkscape:window-x="-11"
     inkscape:window-y="-11"
     inkscape:window-maximized="1" />
  <metadata
     id="metadata883">
    <rdf:RDF>
      <cc:Work
         rdf:about="">
        <dc:format>image/svg+xml</dc:format>
        <dc:type
           rdf:resource="http://purl.org/dc/dcmitype/StillImage" />
        <dc:title />
      </cc:Work>
    </rdf:RDF>
  </metadata>
  <g
     inkscape:label="Calque 1"
     inkscape:groupmode="layer"
     id="layer1">
    <path
       style="fill:#5770be;stroke-width:0.044249;fill-opacity:1"
       d="M 0.75648253,10.217349 V 8.3146407 H 2.6370653 4.517648 v 1.9027083 1.902707 H 2.6370653 0.75648253 Z M 3.9866599,10.195229 V 8.8456287 H 2.6370653 1.2874706 v 1.3495963 1.349594 h 1.3495947 1.3495946 z m -2.1682013,0.02212 V 9.4208667 h 0.7964821 0.7964821 v 0.7964823 0.796482 H 2.6149407 1.8184586 Z m 4.8673906,1.0841 V 10.482843 H 5.8672426 5.0486361 V 10.217349 9.9518547 H 5.5796242 6.110612 V 9.1332477 8.3146407 H 6.3982306 6.6858492 V 7.7836527 7.2526647 H 5.8672426 5.0486361 v 0.265494 0.265494 h 0.265494 0.2654941 v 0.265495 0.265493 H 5.3141301 5.0486361 V 8.0491477 7.7836527 H 4.2300294 3.4114228 V 7.5181587 7.2526647 H 2.8804348 2.3494467 V 6.9871707 6.7216767 H 2.0839526 1.8184586 v 0.530988 0.530988 H 1.2874706 0.75648253 V 7.2526647 6.7216767 H 1.2874706 1.8184586 V 6.4340587 6.1464396 H 1.5529646 1.2874706 V 5.880946 5.6154517 h 0.530988 0.5309881 V 5.3499574 5.0844638 h 0.265494 0.2654941 V 5.9030705 6.7216767 H 3.4335474 3.9866599 V 6.4340587 6.1464396 H 3.6990414 3.4114228 V 5.880946 5.6154517 H 3.6990414 3.9866599 V 5.3499574 5.0844638 H 4.2521539 4.517648 V 5.3499574 5.6154517 H 4.2521539 3.9866599 V 5.880946 6.1464396 h 0.265494 0.2654941 v 0.2876191 0.287618 H 4.2521539 3.9866599 v 0.265494 0.265494 H 4.517648 5.0486361 v -0.265494 -0.265494 h 0.265494 0.2654941 V 6.4340587 6.1464396 H 5.3141301 5.0486361 V 5.880946 5.6154517 h 0.265494 0.2654941 V 5.3499574 5.0844638 H 5.8451182 6.110612 V 4.5534753 4.0224874 H 5.8451182 5.5796242 V 4.2879817 4.5534753 H 5.3141301 5.0486361 V 3.469375 2.3852748 h 0.265494 0.2654941 V 2.1197805 1.8542862 H 5.3141301 5.0486361 V 1.3232984 0.79231048 h 0.265494 0.2654941 V 1.0578041 1.3232984 H 5.8451182 6.110612 V 1.5887926 1.8542862 H 6.6637247 7.2168372 V 1.5887926 1.3232984 h 0.265494 0.265494 v 0.2654942 0.2654936 h -0.265494 -0.265494 v 0.2654943 0.2654943 h 0.265494 0.265494 v 0.2654936 0.2654942 h -0.265494 -0.265494 v 0.2654936 0.2654943 h 0.265494 0.265494 v 0.5531124 0.5531124 h -0.265494 -0.265494 v 0.2654943 0.2654942 h 0.265494 0.265494 V 5.3499574 5.6154517 H 6.9292187 6.110612 V 5.880946 6.1464396 h 0.5531127 0.5531125 v 0.2876191 0.287618 h 0.265494 0.265494 v 0.530988 0.530988 H 8.5664319 9.3850382 V 7.5181587 7.2526647 H 9.6505325 9.9160268 V 6.4340587 5.6154517 H 9.3629137 8.8098014 V 5.880946 6.1464396 H 8.5443073 8.2788133 V 5.880946 5.6154517 h 0.265494 0.2654941 V 5.3499574 5.0844638 h 0.8186066 0.818607 v 1.3495949 1.349594 H 10.18152 9.9160268 v 0.265495 0.265493 h 0.7964822 0.796481 v -0.265493 -0.265495 h -0.265493 -0.265494 v -0.265494 -0.265494 h 0.265494 0.265493 V 6.6995517 6.1464396 H 11.243497 10.978003 V 5.6154517 5.0844638 h 0.553112 0.553113 v 1.6150879 1.615089 H 11.796609 11.50899 v 0.265495 0.265493 h 0.287619 0.287619 v 1.084101 1.0841013 H 11.796609 11.50899 V 10.748337 10.482843 H 10.712509 9.9160268 v 0.530988 0.530988 h 0.2654932 0.265495 v -0.265494 -0.265494 h 0.265494 0.265494 v 0.265494 0.265494 h 0.265494 0.265493 v 0.287618 0.287619 H 10.447015 9.3850382 V 11.301449 10.482843 H 9.6505325 9.9160268 V 10.217349 9.9518547 H 9.3629137 8.8098014 V 9.3987417 8.8456287 H 8.2788133 7.7478252 v 0.287619 0.287619 h 0.265494 0.2654941 v 0.530988 0.5309883 h 0.265494 0.2654941 v 0.265494 0.265494 H 8.5443073 8.2788133 V 10.748337 10.482843 H 8.0133192 7.7478252 V 10.217349 9.9518547 h -0.265494 -0.265494 v 1.0841003 1.084101 H 6.9513433 6.6858492 Z M 7.2168372,9.3987417 V 8.8456287 H 6.9513433 6.6858492 v 0.553113 0.553113 h 0.2654941 0.2654939 z m 3.2301778,0.287619 v -0.265494 h 0.530988 0.530987 v -0.287619 -0.287619 h -0.530987 -0.530988 v 0.287619 0.287619 H 10.18152 9.9160268 v 0.265494 0.265494 H 10.18152 10.447015 Z M 9.9160268,8.5801357 V 8.3146407 H 9.6505325 9.3850382 v 0.265495 0.265493 H 9.6505325 9.9160268 Z M 7.7478252,8.0491477 v -0.265495 h -0.265494 -0.265494 v 0.265495 0.265493 h 0.265494 0.265494 z M 7.2168372,6.9871707 V 6.7216767 H 6.9513433 6.6858492 v 0.265494 0.265494 h 0.2654941 0.2654939 z m 0,-2.699189 V 4.0224874 H 6.9513433 6.6858492 V 4.2879817 4.5534753 H 6.9513433 7.2168372 Z M 6.110612,3.1817562 V 2.9162626 H 6.6637247 7.2168372 V 2.6507684 2.3852748 H 6.3982306 5.5796242 v 0.5309878 0.5309879 h 0.265494 0.2654938 z m 1.6372132,8.6506808 v -0.287618 h 0.5309881 0.5309881 v 0.287618 0.287619 H 8.2788133 7.7478252 Z M 8.2788133,6.9871707 v -0.265494 h 0.265494 0.2654941 v 0.265494 0.265494 H 8.5443073 8.2788133 Z M 0.75648253,2.6728929 V 0.79231048 H 2.6370653 4.517648 V 2.6728929 4.5534753 H 2.6370653 0.75648253 Z m 3.23017737,0 V 1.3232984 H 2.6370653 1.2874706 V 2.6728929 4.0224874 H 2.6370653 3.9866599 Z M 1.8184586,2.6507684 V 1.8542862 H 2.6149407 3.4114228 V 2.6507684 3.4472505 H 2.6149407 1.8184586 Z m 6.4603547,0.022125 V 0.79231048 H 10.18152 12.084228 V 2.6728929 4.5534753 H 10.18152 8.2788133 Z m 3.2301767,0 V 1.3232984 H 10.159396 8.8098014 V 2.6728929 4.0224874 H 10.159396 11.50899 Z M 9.3850382,2.6507684 V 1.8542862 H 10.18152 10.978003 V 2.6507684 3.4472505 H 10.18152 9.3850382 Z"
       id="path902" />
    <path
       transform="scale(0.26458333)"
       id="path833"
       d="M 31.407754,10.118407 V 3.0473391 h 7.071068 7.071068 v 7.0710679 7.071068 h -7.071068 -7.071068 z m 12.121831,0 V 4.9413752 h -5.177032 -5.177032 v 5.1770318 5.177032 h 5.177032 5.177032 z"
       style="fill:#5770be;stroke-width:0.126269;fill-opacity:1" />
    <path
       transform="scale(0.26458333)"
       id="path835"
       d="M 35.574634,10.055272 V 7.0879493 h 2.904188 2.904189 v 2.9673227 2.967324 h -2.904189 -2.904188 z"
       style="fill:#5770be;stroke:none;stroke-width:0.126269;fill-opacity:1" />
    <path
       transform="scale(0.26458333)"
       id="path837"
       d="m 19.159655,26.407117 v -0.883884 h 1.010152 1.010153 v -1.199556 -1.199556 h -1.010153 -1.010152 v -0.947018 -0.947018 h 1.010152 1.010153 v -0.947018 -0.947018 h 1.010152 1.010153 v -2.08344 -2.083439 h -1.073287 -1.073287 v 1.010152 1.010153 h -0.947018 -0.947018 v -4.04061 -4.0406106 h 0.947018 0.947018 v 2.0203056 2.020305 h 1.073287 1.073287 V 12.138712 11.12856 h 2.020305 2.020305 v 1.010152 1.010153 h 1.010153 1.010152 v 2.020305 2.020305 H 28.314162 27.367144 V 16.179322 15.16917 H 26.293857 25.22057 v 1.073287 1.073287 h 1.010152 1.010153 v 1.010152 1.010153 h 1.010153 1.010152 v 0.883884 0.883883 h -3.093592 -3.093592 v 1.073287 1.073287 h 2.083439 2.08344 v 1.073287 1.073287 H 26.230722 25.22057 V 26.343982 27.291 h -3.030458 -3.030457 z"
       style="fill:#5770be;stroke:none;stroke-width:0.126269;fill-opacity:1" />
    <path
       transform="scale(0.26458333)"
       id="path839"
       d="m 19.159655,26.407117 v -0.883884 h 1.010152 1.010153 v -1.199556 -1.199556 h -1.010153 -1.010152 v -0.947018 -0.947018 h 1.010152 1.010153 v -0.947018 -0.947018 h 1.010152 1.010153 v -2.08344 -2.083439 h -1.073287 -1.073287 v 1.010152 1.010153 h -0.947018 -0.947018 v -4.04061 -4.0406106 h 0.947018 0.947018 v 2.0203056 2.020305 h 1.073287 1.073287 V 12.138712 11.12856 h 2.020305 2.020305 v 1.010152 1.010153 h 1.010153 1.010152 v 2.020305 2.020305 H 28.314162 27.367144 V 16.179322 15.16917 H 26.293857 25.22057 v 1.073287 1.073287 h 1.010152 1.010153 v 1.010152 1.010153 h 1.010153 1.010152 v 0.883884 0.883883 h -3.093592 -3.093592 v 1.073287 1.073287 h 2.083439 2.08344 v 1.073287 1.073287 H 26.230722 25.22057 V 26.343982 27.291 h -3.030458 -3.030457 z"
       style="fill:#5770be;stroke:none;stroke-width:0.126269;fill-opacity:1" />
    <path
       transform="scale(0.26458333)"
       id="path841"
       d="M 2.8709447,10.118407 V 3.0473391 H 9.9420126 17.01308 v 7.0710679 7.071068 H 9.9420126 2.8709447 Z m 12.2480993,0 V 4.9413752 H 9.9420126 4.7649808 v 5.1770318 5.177032 h 5.1770318 5.1770314 z"
       style="fill:#5770be;stroke:none;stroke-width:0.126269;fill-opacity:1" />
    <path
       transform="scale(0.26458333)"
       id="path843"
       d="M 6.9115549,10.055272 V 7.0879493 h 2.9673231 2.967323 v 2.9673227 2.967324 H 9.878878 6.9115549 Z"
       style="fill:#5770be;stroke:none;stroke-width:0.126269;fill-opacity:1" />
    <path
       transform="scale(0.26458333)"
       id="path845"
       d="M 21.17996,7.9718328 V 6.9616803 H 20.169807 19.159655 V 5.0045097 3.0473391 h 0.947018 0.947018 v 1.0101526 1.0101525 h 1.010152 1.010153 v 1.0101526 1.0101525 h 2.083439 2.08344 v 0.9470181 0.947018 H 24.210417 21.17996 Z"
       style="fill:#5770be;stroke:none;stroke-width:0.126269;fill-opacity:1" />
    <path
       transform="scale(0.26458333)"
       id="path847"
       d="M 27.367144,10.055272 V 9.1082544 h 0.947018 0.947018 v 0.9470176 0.947018 h -0.947018 -0.947018 z"
       style="fill:#5770be;stroke:none;stroke-width:0.126269;fill-opacity:1" />
    <path
       transform="scale(0.26458333)"
       id="path849"
       d="M 27.367144,6.0146623 V 5.0676442 h 0.947018 0.947018 v 0.9470181 0.947018 h -0.947018 -0.947018 z"
       style="fill:#5770be;stroke:none;stroke-width:0.126269;fill-opacity:1" />
    <path
       transform="scale(0.26458333)"
       id="path851"
       d="M 25.346839,42.632692 V 39.5391 h -3.093592 -3.093592 v -0.947018 -0.947018 h 2.020305 2.020305 V 34.551472 31.45788 h 1.073287 1.073287 v -2.020305 -2.020306 h 1.010153 1.010152 v -0.947018 -0.947018 h 0.947018 0.947018 v 1.894036 1.894036 h -1.010152 -1.010153 v 1.073288 1.073287 h 1.073287 1.073287 v -1.010153 -1.010152 h 3.093592 3.093593 v -1.010153 -1.010153 h 1.012358 1.012359 l -0.03377,-3.125159 -0.03377,-3.125159 -2.115007,-0.03462 -2.115007,-0.03462 V 20.21688 19.33605 h 3.030458 3.030458 v 4.987628 4.987628 H 38.415688 37.46867 v 1.010153 1.010153 h -1.010153 -1.010153 v 1.073287 1.073287 h 1.073288 1.073287 V 32.468032 31.45788 h 2.904188 2.904189 v 0.947018 0.947018 h -2.020305 -2.020305 v 1.073287 1.073287 H 38.415688 37.46867 v 1.010152 1.010153 h -2.08344 -2.08344 v -2.08344 -2.083439 H 31.281485 29.26118 v 1.136421 1.136422 h 1.010153 1.010152 v 1.95717 1.957171 h -0.947018 -0.947018 v -1.010153 -1.010152 h -1.010152 -1.010153 v -2.08344 -2.083439 H 26.293857 25.22057 v 2.146574 2.146574 h 1.010152 1.010153 v 4.04061 4.04061 h -0.947018 -0.947018 z"
       style="fill:#5770be;stroke:none;stroke-width:0.126269;fill-opacity:1" />
    <path
       transform="scale(0.26458333)"
       id="path853"
       d="M 43.529585,30.321458 V 29.311305 H 42.519432 41.50928 v -0.947018 -0.947018 h 1.010152 1.010153 V 25.270695 23.124121 H 42.519432 41.50928 v -1.894036 -1.894036 h 2.020305 2.020305 v 5.997781 5.997781 h -1.010153 -1.010152 z"
       style="fill:#5770be;stroke:none;stroke-width:0.126269;fill-opacity:1" />
    <path
       transform="scale(0.26458333)"
       id="path855"
       d="M 43.529585,40.549253 V 39.5391 h -2.967323 -2.967323 v -0.947018 -0.947018 h 0.947018 0.947018 v -1.010153 -1.010152 h 2.020305 2.020305 v -1.073287 -1.073287 h 1.010152 1.010153 v 4.04061 4.04061 h -1.010153 -1.010152 z"
       style="fill:#5770be;stroke:none;stroke-width:0.126269;fill-opacity:1" />
    <path
       transform="scale(0.26458333)"
       id="path857"
       d="m 35.574634,42.695827 v -3.030458 h 0.947018 0.947018 v 2.020305 2.020305 h 1.010152 1.010153 v -1.010152 -1.010153 h 0.947018 0.947018 v 1.010153 1.010152 h 1.010152 1.010153 v 1.010153 1.010152 h -3.914341 -3.914341 z"
       style="fill:#5770be;stroke:none;stroke-width:0.126269;fill-opacity:1" />
    <path
       transform="scale(0.26458333)"
       id="path859"
       d="m 31.407754,40.612387 v -0.947018 h 0.883884 0.883883 v 0.947018 0.947018 h -0.883883 -0.883884 z"
       style="fill:#5770be;stroke:none;stroke-width:0.126269;fill-opacity:1" />
    <path
       transform="scale(0.26458333)"
       id="path861"
       d="m 29.387449,44.716132 v -1.010153 h 1.894036 1.894036 v 1.010153 1.010152 h -1.894036 -1.894036 z"
       style="fill:#5770be;stroke:none;stroke-width:0.126269;fill-opacity:1" />
    <path
       transform="scale(0.26458333)"
       id="path863"
       d="M 2.8709447,38.592082 V 31.45788 H 9.9420126 17.01308 v 7.134202 7.134202 H 9.9420126 2.8709447 Z M 15.119044,38.528947 V 33.351916 H 9.9420126 4.7649808 v 5.177031 5.177032 h 5.1770318 5.1770314 z"
       style="fill:#5770be;stroke:none;stroke-width:0.126269;fill-opacity:1" />
    <path
       transform="scale(0.26458333)"
       id="path865"
       d="m 6.9115549,38.592082 v -2.967323 h 2.9673231 2.967323 v 2.967323 2.967323 H 9.878878 6.9115549 Z"
       style="fill:#5770be;stroke:none;stroke-width:0.126269;fill-opacity:1" />
    <path
       transform="scale(0.26458333)"
       id="path867"
       d="M 12.97247,28.301153 V 27.291 H 10.952165 8.93186 V 26.343982 25.396964 H 7.9217075 6.9115549 V 24.260543 23.124121 H 5.9014024 4.8912498 V 22.177103 21.230085 H 6.9115549 8.93186 v -0.947018 -0.947018 h 0.947018 0.947018 v 3.093592 3.093592 h 2.08344 2.083439 v 0.947018 0.947018 h 2.020305 2.020306 v 0.947018 0.947018 H 16.002928 12.97247 Z"
       style="fill:#5770be;stroke:none;stroke-width:0.126269;fill-opacity:1" />
    <path
       transform="scale(0.26458333)"
       id="path869"
       d="M 15.119044,24.323677 V 23.25039 h 0.947018 0.947018 v 1.073287 1.073287 h -0.947018 -0.947018 z"
       style="fill:#5770be;stroke:none;stroke-width:0.126269;fill-opacity:1" />
    <path
       transform="scale(0.26458333)"
       id="path871"
       d="m 12.97247,22.177103 v -0.947018 h 1.010153 1.010152 v 0.947018 0.947018 H 13.982623 12.97247 Z"
       style="fill:#5770be;stroke:none;stroke-width:0.126269;fill-opacity:1" />
    <path
       transform="scale(0.26458333)"
       id="path873"
       d="m 15.119044,20.219933 v -0.883884 h 0.947018 0.947018 v 0.883884 0.883883 h -0.947018 -0.947018 z"
       style="fill:#5770be;stroke:none;stroke-width:0.126269;fill-opacity:1" />
    <path
       transform="scale(0.26458333)"
       id="path875"
       d="m 31.407754,22.177103 v -0.947018 h 0.883884 0.883883 v 0.947018 0.947018 h -0.883883 -0.883884 z"
       style="fill:#5770be;stroke:none;stroke-width:0.126269;fill-opacity:1" />
    <path
       transform="scale(0.26458333)"
       id="path877"
       d="m 31.407754,26.407117 v -0.883884 h 0.883884 0.883883 V 26.407117 27.291 h -0.883883 -0.883884 z"
       style="fill:#5770be;stroke:none;stroke-width:0.126269;fill-opacity:1" />
    <path
       transform="scale(0.26458333)"
       id="path879"
       d="m 19.159655,30.384593 v -0.947018 h 0.947018 0.947018 v 0.947018 0.947018 h -0.947018 -0.947018 z"
       style="fill:#5770be;stroke:none;stroke-width:0.126269;fill-opacity:1" />
    <path
       transform="scale(0.26458333)"
       id="path881"
       d="m 2.8709447,27.417269 v -1.894036 h 1.9571706 1.9571706 v 1.894036 1.894036 H 4.8281153 2.8709447 Z"
       style="fill:#5770be;stroke:none;stroke-width:0.126269;fill-opacity:1" />
  </g>
</svg>
