<?xml version="1.0" encoding="UTF-8" standalone="no"?>
<svg
   xmlns:dc="http://purl.org/dc/elements/1.1/"
   xmlns:cc="http://creativecommons.org/ns#"
   xmlns:rdf="http://www.w3.org/1999/02/22-rdf-syntax-ns#"
   xmlns:svg="http://www.w3.org/2000/svg"
   xmlns="http://www.w3.org/2000/svg"
   xmlns:sodipodi="http://sodipodi.sourceforge.net/DTD/sodipodi-0.dtd"
   xmlns:inkscape="http://www.inkscape.org/namespaces/inkscape"
   inkscape:export-ydpi="96"
   inkscape:export-xdpi="96"
   inkscape:export-filename="C:\Users\barba\Documents\github_sync\jtvfr\img\dessin_etude_ferro.png"
   sodipodi:docname="panneauEtudeTemplate.svg"
   inkscape:version="1.0 (4035a4fb49, 2020-05-01)"
   id="svg8"
   version="1.1"
   viewBox="0 0 210 297"
   height="297mm"
   width="210mm">
  <defs
     id="defs2">
    <rect
       id="rect849"
       height="145.89881"
       width="329.97321"
       y="152.3244"
       x="-83.910714" />
  </defs>
  <sodipodi:namedview
     inkscape:window-maximized="1"
     inkscape:window-y="-11"
     inkscape:window-x="-11"
     inkscape:window-height="1346"
     inkscape:window-width="2160"
     showgrid="false"
     inkscape:document-rotation="0"
     inkscape:current-layer="layer1"
     inkscape:document-units="mm"
     inkscape:cy="559.67309"
     inkscape:cx="247.27458"
     inkscape:zoom="0.7"
     inkscape:pageshadow="2"
     inkscape:pageopacity="0.0"
     borderopacity="1.0"
     bordercolor="#666666"
     pagecolor="#ffffff"
     id="base" />
  <metadata
     id="metadata5">
    <rdf:RDF>
      <cc:Work
         rdf:about="">
        <dc:format>image/svg+xml</dc:format>
        <dc:type
           rdf:resource="http://purl.org/dc/dcmitype/StillImage" />
        <dc:title></dc:title>
      </cc:Work>
    </rdf:RDF>
  </metadata>
  <g
     id="layer1"
     inkscape:groupmode="layer"
     inkscape:label="Calque 1">
    <rect
       y="-4.313971"
       x="-3.2497919"
       height="307.39264"
       width="217.26448"
       id="rect962"
       style="fill:#ffffff;fill-opacity:1;stroke:#000000;stroke-width:0.21582" />
    <text
       y="0"
       x="39.860924"
       transform="matrix(0.96870986,0,0,0.96870986,29.140634,65.152507)"
       style="font-style:normal;font-weight:normal;font-size:31.75px;line-height:1.25;font-family:sans-serif;white-space:pre;shape-inside:url(#rect849);fill:#000000;fill-opacity:1;stroke:none;"
       id="text847"
       xml:space="preserve"><tspan
         x="-18.206613"
         y="181.69297"><tspan
           style="font-size:23.3071px">LE FERROVIAIRE</tspan><tspan
           style="font-style:normal;font-variant:normal;font-weight:normal;font-stretch:normal;font-size:31.75px;font-family:'Lexend Deca';-inkscape-font-specification:'Lexend Deca';text-align:center;text-anchor:middle">
</tspan></tspan><tspan
         x="-10.484131"
         y="221.78274"><tspan
           style="font-style:normal;font-variant:normal;font-weight:normal;font-stretch:normal;font-size:31.75px;font-family:'Lexend Deca';-inkscape-font-specification:'Lexend Deca';text-align:center;text-anchor:middle">EN FRANCE</tspan></tspan></text>
    <g
       transform="matrix(0.26458333,0,0,0.26458333,-484.91992,-299.71979)"
       id="g935">
      <ellipse
         style="stroke-width:1.23424"
         cx="-376.54419"
         cy="-173.2731"
         rx="41.909843"
         ry="25.334583"
         transform="matrix(-0.67335985,-0.7393149,-0.75412374,0.65673236,0,0)"
         fill="#2f2e41"
         id="ellipse873" />
      <ellipse
         style="stroke-width:1.23409"
         transform="scale(-1,1)"
         ry="108.60921"
         rx="111.0715"
         cx="-303.72342"
         cy="241.47142"
         fill="#2f2e41"
         id="circle875" />
      <path
         style="stroke-width:1.23409"
         d="m 628.31081,193.60444 103.23949,8.25957 a 17.082636,16.703939 0 0 1 15.64488,15.44106 l 3.85484,52.01747 a 17.082549,16.703853 0 0 1 -17.03794,17.91121 h -46.53039 v 2.44065 h -18.71991 v -2.44065 h -9.98399 v 2.44065 h -18.7199 v -2.44065 h -9.97883 a 17.08266,16.703964 0 0 1 -17.06022,-15.84841 l -3.16119,-60.27717 a 17.082549,16.703853 0 0 1 18.45316,-17.50373 z"
         fill="#2f2e41"
         id="path877" />
      <path
         style="stroke-width:1.23409"
         d="m 562.68225,358.01276 146.01535,-67.11806 26.2079,40.27084 c 0,0 -75.92521,47.39476 -79.87164,51.25378 -5.61596,5.49148 -66.14373,43.93182 -89.85562,37.83018 -23.7119,-6.10164 -12.47995,-56.1351 -2.49599,-62.23674 z"
         fill="#9f616a"
         id="path879" />
      <polygon
         transform="matrix(-1.2479944,0,0,1.2203283,776.08926,-119.16818)"
         points="380,641.027 251,643.027 236,677.027 391.28,677.027 "
         fill="#2f2e41"
         id="polygon881" />
      <path
         style="stroke-width:1.23409"
         d="m 344.28322,328.72488 c 0,0 -7.48797,40.27084 0,45.15215 7.48796,4.88132 -49.91978,64.6774 -49.91978,64.6774 l -23.71189,-20.74558 -7.48798,-47.59281 c 0,0 22.46391,-30.50821 12.47995,-57.35543 -9.98394,-26.84722 68.6397,15.86427 68.6397,15.86427 z"
         fill="#9f616a"
         id="path883" />
      <ellipse
         style="stroke-width:1.23409"
         transform="scale(-1,1)"
         ry="78.101013"
         rx="79.871643"
         cx="-321.81937"
         cy="262.82715"
         fill="#9f616a"
         id="circle885" />
      <path
         style="stroke-width:1.23409"
         d="m 300.60341,410.48687 c 0,0 31.19986,-46.37247 48.67179,-50.03346 17.47193,-3.66097 33.69585,-1.22032 43.67979,0 9.98397,1.22033 43.67982,-10.98295 63.64773,-2.44065 19.96791,8.54229 0,108.60922 0,108.60922 0,0 22.4639,128.13446 12.47995,161.08333 -9.98396,32.94886 -2.496,39.0505 2.49599,42.71148 4.99197,3.66099 -113.5675,36.60985 -113.5675,36.60985 H 245.69167 c 0,0 0,-35.38951 -11.23197,-43.93182 -11.23195,-8.5423 -9.98394,-189.15088 -9.98394,-189.15088 L 187.03592,403.1649 c 0,0 6.23998,-26.84722 32.44786,-28.06754 26.20789,-1.22033 49.60175,-14.67409 49.60175,-14.67409 l 17.78994,50.0636 z"
         fill="#6219d8"
         id="path887" />
      <path
         style="stroke-width:1.23409"
         d="m 445.37077,364.1144 11.23195,-6.10164 c 0,0 21.2159,1.22033 24.95989,0 3.74399,-1.22032 51.16777,-15.86426 69.88768,-7.32197 18.71993,8.5423 31.19987,-2.44066 31.19987,-2.44066 0,0 -61.15173,51.25379 13.72793,67.11805 0,0 -1.24798,6.10164 -19.9679,9.76263 -18.71992,3.66099 -22.4639,7.32197 -29.95187,13.42362 -7.48797,6.10164 -22.4639,12.20328 -32.44785,14.64393 -9.98396,2.44066 -42.43181,23.18625 -47.4238,18.30493 -4.99198,-4.88131 -13.72793,-21.96591 -13.72793,-21.96591 z"
         fill="#6219d8"
         id="path889" />
      <path
         style="stroke-width:1.23409"
         d="m 210.74781,389.7413 -23.71189,13.4236 c 0,0 -31.19986,90.3043 -26.20787,112.27021 4.99197,21.96591 9.98394,18.30492 2.49598,32.94886 -7.48797,14.64394 -14.97593,15.86427 -9.98396,29.28787 4.99197,13.42362 2.49599,46.37248 9.98396,59.79609 7.48796,13.42361 43.6798,56.1351 74.87966,-15.86427 C 269.40356,549.6043 210.74781,389.7413 210.74781,389.7413 Z"
         fill="#6219d8"
         id="path891" />
      <path
         style="stroke-width:1.23409"
         d="m 165.82002,576.45152 c 0,0 17.47192,-34.16919 21.2159,-36.60985 3.74398,-2.44065 21.21591,-86.64331 21.21591,-86.64331 0,0 -27.45587,-43.93182 -2.49599,-63.45706 0,0 -46.17579,-63.45707 -31.19986,-62.23675 14.97592,1.22033 44.9278,47.59281 44.9278,47.59281 0,0 6.86396,-1.83049 4.36798,-11.59312 -2.49599,-9.76263 -11.85595,-44.54198 -4.36798,-45.76232 7.48796,-1.22032 22.4639,51.2538 22.4639,51.2538 0,0 30.57587,54.3046 21.21589,73.21969 a 241.13848,235.7928 0 0 1 -18.7199,30.50821 l -21.21592,151.3207 c 0,0 -41.18381,48.81313 -57.40773,-47.5928 z"
         fill="#9f616a"
         id="path893" />
      <ellipse
         style="stroke-width:1.23409"
         transform="scale(-1,1)"
         cx="-636.31396"
         cy="210.35304"
         rx="13.727939"
         ry="6.1016412"
         fill="#6219d8"
         id="ellipse895" />
      <ellipse
         style="stroke-width:1.23409"
         transform="scale(-1,1)"
         cx="-334.92328"
         cy="210.96321"
         rx="71.135689"
         ry="35.389519"
         fill="#2f2e41"
         id="ellipse899" />
      <ellipse
         style="stroke-width:1.23409"
         transform="scale(-1,1)"
         cx="-238.82764"
         cy="254.89502"
         rx="6.2399726"
         ry="13.423611"
         fill="#9f616a"
         id="ellipse901" />
      <ellipse
         style="stroke-width:1.23418"
         cx="-262.8631"
         cy="79.676979"
         rx="25.476633"
         ry="41.672298"
         transform="matrix(-0.90332892,-0.42894856,-0.44479595,0.89563193,0,0)"
         fill="#2f2e41"
         id="ellipse903" />
      <path
         sodipodi:nodetypes="ssssscsssssssscssssscssssssssssssssscsssssscsscssssssssssscsssccssssssssccsscssssssss"
         style="fill:#6219d8;fill-opacity:1;stroke-width:0.0100261"
         d="m 663.16321,269.19797 c -0.76428,-0.0634 -1.29244,-0.16323 -2.14694,-0.40559 -6.3798,-1.80955 -11.42275,-4.26232 -14.72091,-7.15997 -2.12958,-1.87094 -3.53368,-3.92287 -4.18352,-6.11361 -0.39799,-1.34178 -0.63464,-3.20397 -0.67849,-5.33921 -0.0187,-0.92315 0.0101,-2.22525 0.0725,-3.2376 0.28317,-4.60312 1.25018,-9.45244 2.74199,-13.75034 1.01782,-2.93235 2.26764,-5.54918 3.67636,-7.69743 1.29956,-1.98176 2.71144,-3.55425 4.24743,-4.73053 0.24369,-0.18662 0.35528,-0.24831 0.54322,-0.30028 0.64687,-0.17886 1.57386,0.0535 2.91516,0.73054 0.57706,0.2913 1.07932,0.57355 2.29229,1.28819 1.25347,0.7385 1.71246,0.9962 2.28779,1.28458 1.14093,0.57185 1.94157,0.78659 2.47602,0.66409 0.10481,-0.024 0.10576,-0.0243 0.63836,-0.23563 0.90299,-0.3582 1.60046,-0.60839 2.42326,-0.86925 3.57413,-1.13315 7.78172,-1.82648 12.7311,-2.09787 3.42445,-0.18779 7.34465,-0.16166 11.12724,0.0743 4.93249,0.30758 9.51388,0.97859 13.52035,1.98025 2.38153,0.59541 4.52625,1.30118 6.23185,2.05074 0.34411,0.15124 0.36944,0.15815 0.59491,0.16273 0.30002,0.006 0.61675,-0.061 1.08207,-0.22909 0.64226,-0.23205 1.33339,-0.57196 2.89557,-1.42415 1.24444,-0.67886 1.75728,-0.94686 2.29767,-1.20072 1.20284,-0.56507 2.02705,-0.76629 2.53233,-0.61823 0.16534,0.0484 0.29776,0.13667 0.74754,0.4982 2.35838,1.89558 4.44107,4.71799 6.13924,8.31975 1.24024,2.63046 2.25559,5.64612 2.98333,8.86068 1.02013,4.50601 1.42372,9.19075 1.12767,13.08942 -0.1441,1.8977 -0.46077,3.57826 -0.90604,4.80833 -0.50244,1.38798 -1.35499,2.76744 -2.4423,3.95174 -0.24799,0.27012 -0.28423,0.30851 -0.44149,0.46796 -0.90878,0.92138 -2.04506,1.83224 -3.30833,2.65195 -1.28533,0.83405 -2.78517,1.63089 -4.39527,2.33515 -2.50715,1.09661 -5.3288,2.02175 -8.51714,2.79254 -0.75328,0.18211 -1.0167,0.23452 -1.45671,0.28979 -0.58728,0.0737 -0.85094,0.0852 -1.59732,0.0688 -0.63926,-0.014 -0.74311,-0.0206 -1.24144,-0.0776 -1.67417,-0.19185 -3.54211,-0.68394 -6.02749,-1.58791 -0.79369,-0.28866 -1.52369,-0.56862 -3.1368,-1.20288 -1.78548,-0.70207 -2.38544,-0.93312 -3.22283,-1.24109 -2.99333,-1.10089 -5.2185,-1.67793 -7.26081,-1.88286 -0.47914,-0.0481 -0.66642,-0.059 -1.23696,-0.0719 -0.57289,-0.013 -0.76968,-0.0102 -1.23436,0.0164 -1.87311,0.1076 -3.84707,0.53183 -6.30129,1.35413 -0.93081,0.31189 -1.79205,0.62757 -3.72807,1.36654 -1.05388,0.40227 -1.71884,0.65174 -2.20675,0.82791 -2.78375,1.00521 -4.64,1.4493 -6.50306,1.55583 -0.24946,0.0147 -1.18957,0.003 -1.43089,-0.0168 z m 3.50985,-14.53767 c 0.36804,-0.0448 0.7192,-0.15956 1.0675,-0.34888 1.73638,-0.94378 3.0454,-3.58135 3.35782,-6.76566 0.0398,-0.40676 0.0547,-0.66048 0.065,-1.12213 0.0158,-0.7034 -0.007,-1.25851 -0.0794,-1.93106 -0.18492,-1.71752 -0.70245,-3.33999 -1.43305,-4.49263 -0.19641,-0.30989 -0.46128,-0.65786 -0.67469,-0.88637 -0.46518,-0.49813 -0.9832,-0.84531 -1.52302,-1.02074 -0.26534,-0.0861 -0.47877,-0.12121 -0.77699,-0.12742 -0.51114,-0.0109 -0.95279,0.10331 -1.43959,0.37139 -0.44703,0.24621 -0.81872,0.5587 -1.21567,1.02209 -1.12191,1.30973 -1.89249,3.37966 -2.1228,5.70226 -0.045,0.45337 -0.0556,0.63727 -0.067,1.16402 -0.0122,0.55945 -0.007,0.83022 0.0251,1.31599 0.17361,2.61534 1.03933,4.89954 2.33484,6.16035 0.5609,0.54587 1.21189,0.87888 1.87788,0.96063 0.13086,0.0159 0.46553,0.0155 0.60422,-0.002 z m 38.42254,0.86621 c 0.73469,-0.0823 1.42151,-0.44445 2.06089,-1.08697 0.36867,-0.37047 0.75001,-0.8866 1.04688,-1.4169 0.70439,-1.25823 1.17874,-2.87266 1.34928,-4.5922 0.036,-0.36145 0.0449,-0.50817 0.0607,-0.97423 0.0203,-0.59247 0.0138,-1.01196 -0.0227,-1.53517 -0.19405,-2.77832 -1.16494,-5.16695 -2.57641,-6.33866 -0.49149,-0.40798 -0.99224,-0.64371 -1.55806,-0.73341 -0.1296,-0.0205 -0.50232,-0.0289 -0.63273,-0.0142 -0.55784,0.063 -1.07116,0.27404 -1.56497,0.64358 -1.3085,0.97922 -2.31899,2.942 -2.75197,5.34545 -0.24051,1.33509 -0.291,2.79598 -0.14382,4.16226 0.18088,1.67937 0.66242,3.23535 1.35721,4.38556 0.58674,0.97132 1.28231,1.63179 2.05956,1.95556 0.25861,0.10774 0.47013,0.16085 0.81156,0.20381 0.0703,0.009 0.41278,0.005 0.50471,-0.004 z"
         id="path21" />
      <path
         style="stroke-width:1.23409"
         d="m 719.92953,331.16554 h 17.47197 c 0,0 38.68776,-12.20328 38.68776,-40.27084 0,-28.06755 -11.23192,-85.42297 -46.17575,-84.20264 -34.94383,1.22032 -2.496,76.88068 -2.496,76.88068 l -21.15374,8.44069 -0.0628,25.72849 z"
         fill="#9f616a"
         id="path897" />
    </g>
    <g
       transform="matrix(0.27446695,0,0,0.27446695,-87.301699,-2.8204284)"
       id="g1162">
      <rect
         style="stroke-width:2.57529"
         x="730.83289"
         y="142.46739"
         width="9.0650368"
         height="276.76691"
         fill="#575a89"
         id="rect1060" />
      <rect
         style="stroke-width:2.57529"
         x="758.98077"
         y="142.46739"
         width="9.0907898"
         height="276.76691"
         fill="#575a89"
         id="rect1062" />
      <circle
         style="stroke-width:2.57529"
         cx="710.77124"
         cy="688.55865"
         r="15.503273"
         fill="#575a89"
         id="circle1064" />
      <path
         style="stroke-width:2.57529"
         d="m 655.86601,406.43509 c 0,0 15.45177,-12.56744 29.02357,-8.2152 13.57181,4.35225 48.9306,8.7045 55.1113,30.90353 6.18071,22.19905 0,266.41423 0,266.41423 0,0 -29.97643,7.72589 -38.19162,3.86295 -8.21518,-3.86295 -7.26232,-40.58665 -7.26232,-40.58665 l -2.39503,-216.60803 z"
         fill="#6219d8"
         id="path1066" />
      <path
         style="stroke-width:2.57529"
         d="m 655.86601,406.43509 c 0,0 15.45177,-12.56744 29.02357,-8.2152 13.57181,4.35225 48.9306,8.7045 55.1113,30.90353 6.18071,22.19905 0,266.41423 0,266.41423 0,0 -29.97643,7.72589 -38.19162,3.86295 -8.21518,-3.86295 -7.26232,-40.58665 -7.26232,-40.58665 l -2.39503,-216.60803 z"
         opacity="0.1"
         id="path1068" />
      <path
         style="stroke-width:2.57529"
         d="m 796.5801,683.02172 -65.07769,14.42165 -0.66957,-11.56308 -0.4378,-227.8363 a 69.378435,69.378435 0 0 0 -27.24662,-55.03405 v 0 c 0,0 33.71061,-0.4378 59.54082,11.20253 5.51112,2.5753 11.04801,4.91882 16.71365,7.00481 7.03056,2.57529 16.55915,8.11217 17.17721,19.03141 0.79835,14.21564 3.50241,155.03274 4.48101,206.30686 a 129.76909,129.76909 0 0 1 -4.48101,36.41466 z"
         fill="#6219d8"
         id="path1070" />
      <rect
         style="stroke-width:2.57529"
         x="726.58362"
         y="121.91653"
         width="15.116979"
         height="23.692711"
         fill="#535461"
         id="rect1072" />
      <rect
         style="stroke-width:2.57529"
         x="726.58362"
         y="121.91653"
         width="15.116979"
         height="23.692711"
         opacity="0.1"
         id="rect1074" />
      <rect
         style="stroke-width:2.57529"
         x="754.98914"
         y="125.6765"
         width="15.116979"
         height="23.692711"
         fill="#535461"
         id="rect1076" />
      <path
         style="stroke-width:2.57529"
         d="M 770.10608,125.72797 H 754.9891 a 15.013968,15.013968 0 0 0 -13.28852,8.83327 c -0.20602,0.46355 -0.41204,0.9271 -0.61807,1.44216 l -3.32213,-3.21911 -6.92754,-6.69577 -4.24924,-4.09472 c 0,0 27.9162,-14.29289 43.52248,3.73417 z"
         fill="#535461"
         id="path1078" />
      <circle
         style="stroke-width:2.57529"
         cx="776.69885"
         cy="699.47784"
         r="15.503273"
         fill="#575a89"
         id="circle1080" />
      <circle
         style="stroke-width:2.57529"
         cx="616.59271"
         cy="678.3089"
         r="15.503273"
         fill="#575a89"
         id="circle1082" />
      <path
         style="stroke-width:2.57529"
         d="m 645.71935,403.06144 c 0,0 -43.98603,11.61459 -46.3553,122.3265 -2.36927,110.71191 -2.91009,122.32649 -2.91009,122.32649 0,0 0.97862,31.93366 65.74728,51.73767 h 39.73679 l 6.15495,-254.38759 c 0,0 -7.26232,-38.62942 -62.37363,-42.00307 z"
         fill="#6219d8"
         id="path1084" />
      <path
         style="stroke-width:2.57529"
         d="m 641.85642,574.70483 c 0,0 -11.2798,-154.80096 49.49714,-155.49628 l 5.69141,5.56263 c 0,0 -53.25709,-19.28896 -55.18855,149.93365 z"
         opacity="0.1"
         id="path1086" />
      <circle
         style="stroke-width:2.57529"
         cx="669.1803"
         cy="712.99817"
         r="15.503273"
         fill="#575a89"
         id="circle1088" />
      <path
         style="stroke-width:2.57529"
         d="m 755.16937,125.57345 c 0,0 0,0 0,0 h -0.15452 a 15.013968,15.013968 0 0 0 -13.28852,8.83328 c -0.20602,0.46355 -0.41204,0.9271 -0.61806,1.44215 l -3.32214,-3.21911 a 4.6870362,4.6870362 0 0 1 0,-0.84985 8.7817545,8.7817545 0 0 1 3.29638,-5.71715 13.03099,13.03099 0 0 1 12.59318,-2.26626 c 0.74685,0.36054 1.6482,0.95285 1.49368,1.77694 z"
         opacity="0.1"
         id="path1090" />
    </g>
    <path
       sodipodi:nodetypes="ccssssssssssscccsssscsssscssssssssssssssssccsscscccssssssscsssscssccssscccssccsssssss"
       style="fill:#421192;fill-opacity:1;stroke-width:0.0030465"
       d="m 128.42183,159.15009 c -0.0118,0.26913 -0.0343,0.45574 -0.0922,0.75851 -0.43255,2.26062 -1.04305,4.05871 -1.78207,5.24885 -0.47716,0.76846 -1.00673,1.28408 -1.57782,1.5363 -0.34976,0.15448 -0.83732,0.25798 -1.39788,0.29676 -0.24235,0.0167 -0.58456,0.0209 -0.85089,0.01 -1.21099,-0.049 -2.49122,-0.33565 -3.63013,-0.81257 -0.77705,-0.3254 -1.47276,-0.73573 -2.04648,-1.20701 -0.52924,-0.43475 -0.95174,-0.91344 -1.271,-1.44006 -0.0506,-0.0835 -0.0676,-0.12207 -0.0824,-0.18751 -0.0513,-0.22524 0.003,-0.55337 0.17235,-1.0319 0.0728,-0.20587 0.14343,-0.38537 0.32302,-0.81922 0.18558,-0.44836 0.2502,-0.61238 0.32208,-0.81761 0.14256,-0.407 0.19361,-0.69057 0.15785,-0.87694 -0.008,-0.0366 -0.008,-0.0368 -0.0662,-0.22163 -0.10014,-0.31324 -0.17054,-0.55548 -0.24456,-0.84161 -0.32159,-1.24296 -0.53188,-2.7132 -0.63633,-4.44863 -0.0722,-1.20073 -0.0916,-2.57792 -0.0551,-3.90907 0.0478,-1.73581 0.19336,-3.3523 0.42958,-4.77047 0.14045,-0.84298 0.31145,-1.60402 0.49693,-2.21127 0.0374,-0.12253 0.0391,-0.1315 0.0387,-0.21075 1.1e-4,-0.10542 -0.0201,-0.21594 -0.0675,-0.37754 -0.0653,-0.22305 -0.15917,-0.46208 -0.39347,-1.00144 -0.18665,-0.42966 -0.26048,-0.60686 -0.33077,-0.79388 -0.15649,-0.41628 -0.21486,-0.70356 -0.17936,-0.88265 0.012,-0.0586 0.0339,-0.10608 0.12584,-0.26802 0.48212,-0.84911 1.20953,-1.6115 2.1442,-2.24738 0.68264,-0.4644 1.46794,-0.85404 2.30742,-1.14483 1.17676,-0.40763 2.40457,-0.60065 3.4306,-0.53934 0.49943,0.0298 0.94298,0.12268 1.26906,0.2656 0.36795,0.16128 0.736,0.44563 1.05435,0.81456 0.0727,0.0842 0.083,0.0965 0.12589,0.14996 0.24809,0.30909 0.49493,0.69823 0.71871,1.13295 0.2277,0.44233 0.44706,0.96041 0.64282,1.51821 0.30484,0.86859 0.56675,1.84953 0.79056,2.96094 0.0529,0.26257 0.0684,0.35453 0.0859,0.50848 0.0233,0.20547 0.028,0.29795 0.0288,0.56027 6.5e-4,0.22468 2.7e-4,0.26125 -0.0126,0.43688 -0.0393,0.59013 -0.15593,1.2516 -0.37672,2.13444 -0.0705,0.28192 -0.13915,0.54139 -0.29496,1.11491 -0.17244,0.6348 -0.2291,0.84807 -0.30438,1.14555 -0.26913,1.0634 -0.40579,1.85127 -0.44594,2.57084 -0.01,0.1688 -0.0115,0.23472 -0.0116,0.43524 -1e-4,0.20134 0.002,0.27044 0.0126,0.43337 0.0408,0.65672 0.16547,1.34539 0.3979,2.19839 0.0882,0.32353 0.17685,0.62257 0.38392,1.29447 0.11272,0.36574 0.1827,0.59658 0.23226,0.76602 0.28268,0.96675 0.41175,1.61386 0.45222,2.26707 0.006,0.0875 0.009,0.41777 0.005,0.50275 z m -3.84207,-1.07367 c -0.0143,-0.12876 -0.0469,-0.25085 -0.0988,-0.37111 -0.25954,-0.59954 -0.9611,-1.03045 -1.79962,-1.10532 -0.10709,-0.0101 -0.17384,-0.012 -0.29519,-0.0101 -0.18487,0.003 -0.33052,0.0162 -0.50668,0.0491 -0.44988,0.0838 -0.8726,0.28327 -1.17048,0.55249 -0.0801,0.0725 -0.16969,0.16922 -0.22828,0.24667 -0.12773,0.16884 -0.21545,0.35459 -0.25791,0.54612 -0.0209,0.0941 -0.0287,0.16949 -0.0283,0.27429 10e-4,0.17966 0.0336,0.33353 0.10721,0.50157 0.0677,0.15433 0.15224,0.28145 0.27661,0.41581 0.35153,0.37972 0.9004,0.62771 1.512,0.68316 0.11939,0.0113 0.16776,0.0129 0.30621,0.0112 0.14702,-10e-4 0.21811,-0.007 0.34549,-0.0232 0.68581,-0.0896 1.27997,-0.41866 1.60248,-0.88748 0.13962,-0.20299 0.22274,-0.43528 0.23975,-0.6701 0.003,-0.0461 7.1e-4,-0.16366 -0.004,-0.21219 z m -0.03,-13.50474 c -0.0265,-0.25715 -0.12627,-0.49442 -0.29931,-0.71196 -0.0998,-0.12543 -0.23791,-0.25372 -0.3792,-0.35218 -0.3352,-0.23364 -0.76244,-0.38258 -1.21524,-0.42366 -0.0951,-0.009 -0.13378,-0.0104 -0.2563,-0.0107 -0.15575,-6.3e-4 -0.2659,0.006 -0.40308,0.0249 -0.72848,0.0986 -1.34938,0.46572 -1.6477,0.9743 -0.1039,0.17709 -0.16244,0.35555 -0.18221,0.55527 -0.004,0.0458 -0.004,0.17675 6.8e-4,0.22239 0.0203,0.19524 0.0792,0.37323 0.17951,0.54262 0.26598,0.44887 0.7883,0.78231 1.42252,0.90808 0.35228,0.0699 0.73635,0.0716 1.09424,0.004 0.4399,-0.0819 0.84537,-0.26807 1.14286,-0.5247 0.25119,-0.2167 0.42001,-0.46824 0.49985,-0.74477 0.0266,-0.092 0.0392,-0.1669 0.0481,-0.2873 0.001,-0.0248 -4.8e-4,-0.14502 -0.005,-0.17721 z"
       id="path21-4" />
  </g>
  <style
     id="style2"
     type="text/css">
	.st0{fill:#151515;}
</style>
</svg>
