<?xml version="1.0" encoding="UTF-8" standalone="no"?>
<svg
   xmlns:dc="http://purl.org/dc/elements/1.1/"
   xmlns:cc="http://creativecommons.org/ns#"
   xmlns:rdf="http://www.w3.org/1999/02/22-rdf-syntax-ns#"
   xmlns:svg="http://www.w3.org/2000/svg"
   xmlns="http://www.w3.org/2000/svg"
   xmlns:sodipodi="http://sodipodi.sourceforge.net/DTD/sodipodi-0.dtd"
   xmlns:inkscape="http://www.inkscape.org/namespaces/inkscape"
   inkscape:version="1.0 (4035a4fb49, 2020-05-01)"
   sodipodi:docname="send.svg"
   id="svg6"
   version="1.1"
   width="24"
   viewBox="0 0 24 24"
   height="24">
  <metadata
     id="metadata12">
    <rdf:RDF>
      <cc:Work
         rdf:about="">
        <dc:format>image/svg+xml</dc:format>
        <dc:type
           rdf:resource="http://purl.org/dc/dcmitype/StillImage" />
      </cc:Work>
    </rdf:RDF>
  </metadata>
  <defs
     id="defs10" />
  <sodipodi:namedview
     inkscape:current-layer="svg6"
     inkscape:window-maximized="1"
     inkscape:window-y="-11"
     inkscape:window-x="-11"
     inkscape:cy="11.853061"
     inkscape:cx="12"
     inkscape:zoom="30.625"
     showgrid="false"
     id="namedview8"
     inkscape:window-height="1346"
     inkscape:window-width="2160"
     inkscape:pageshadow="2"
     inkscape:pageopacity="0"
     guidetolerance="10"
     gridtolerance="10"
     objecttolerance="10"
     borderopacity="1"
     bordercolor="#666666"
     pagecolor="#ffffff" />
  <path
     id="path2"
     fill="none"
     d="M0 0h24v24H0z" />
  <path
     id="path4"
     d="M2.01 21L23 12 2.01 3 2 10l15 2-15 2z" />
  <path
     id="path837"
     d="m 2.0244898,17.488435 c 0,-1.914149 0.011134,-3.480272 0.024743,-3.480272 0.041702,0 14.7092312,-1.956195 14.8487262,-1.980362 l 0.130612,-0.02263 -0.114285,-0.0266 C 16.817839,11.956122 2.1202855,9.9917966 2.0489796,9.9918266 c -0.013469,5.6e-6 -0.02449,-1.5664597 -0.02449,-3.4810344 0,-2.7717222 0.00832,-3.4777377 0.040816,-3.4648159 0.022449,0.00893 4.6914286,2.0101899 10.3755104,4.4472537 5.684082,2.4370639 10.37548,4.448068 10.425328,4.468898 0.08424,0.0352 -0.64598,0.353626 -10.345413,4.511341 -5.739827,2.460409 -10.4495923,4.478368 -10.4661453,4.484354 -0.01824,0.0066 -0.030096,-1.3602 -0.030096,-3.469388 z"
     style="fill:#5770be;stroke:none;stroke-width:0.0326531;fill-opacity:1" />
</svg>
